
<svg width="100" height="100" viewBox="0 0 100 100" xmlns="http://www.w3.org/2000/svg">
  <g fill="#2E4A3D" fill-opacity="0.2">
    <rect x="10" y="10" width="20" height="20" rx="2" />
    <rect x="40" y="10" width="20" height="20" rx="2" />
    <rect x="70" y="10" width="20" height="20" rx="2" />
    <rect x="10" y="40" width="20" height="20" rx="2" />
    <rect x="40" y="40" width="20" height="20" rx="2" />
    <rect x="70" y="40" width="20" height="20" rx="2" />
    <rect x="10" y="70" width="20" height="20" rx="2" />
    <rect x="40" y="70" width="20" height="20" rx="2" />
    <rect x="70" y="70" width="20" height="20" rx="2" />
    <path d="M10,35 L30,35 M40,35 L60,35 M70,35 L90,35" stroke="#2E4A3D" stroke-opacity="0.3" stroke-width="2" />
    <path d="M10,65 L30,65 M40,65 L60,65 M70,65 L90,65" stroke="#2E4A3D" stroke-opacity="0.3" stroke-width="2" />
    <path d="M35,10 L35,30 M35,40 L35,60 M35,70 L35,90" stroke="#2E4A3D" stroke-opacity="0.3" stroke-width="2" />
    <path d="M65,10 L65,30 M65,40 L65,60 M65,70 L65,90" stroke="#2E4A3D" stroke-opacity="0.3" stroke-width="2" />
  </g>
</svg>
