
<svg width="100" height="100" viewBox="0 0 100 100" xmlns="http://www.w3.org/2000/svg">
  <g fill="#F8BBD0" fill-opacity="0.3">
    <path d="M30,10 C30,15.5 25.5,20 20,20 C14.5,20 10,15.5 10,10 C10,4.5 20,0 20,0 C20,0 30,4.5 30,10 Z" />
    <path d="M80,30 C80,35.5 75.5,40 70,40 C64.5,40 60,35.5 60,30 C60,24.5 70,20 70,20 C70,20 80,24.5 80,30 Z" />
    <path d="M50,50 C50,55.5 45.5,60 40,60 C34.5,60 30,55.5 30,50 C30,44.5 40,40 40,40 C40,40 50,44.5 50,50 Z" />
    <path d="M90,70 C90,75.5 85.5,80 80,80 C74.5,80 70,75.5 70,70 C70,64.5 80,60 80,60 C80,60 90,64.5 90,70 Z" />
    <path d="M30,90 C30,95.5 25.5,100 20,100 C14.5,100 10,95.5 10,90 C10,84.5 20,80 20,80 C20,80 30,84.5 30,90 Z" />
  </g>
</svg>
