
<svg width="100" height="100" viewBox="0 0 100 100" xmlns="http://www.w3.org/2000/svg">
  <g fill="#D4A017" fill-opacity="0.3">
    <path d="M0,0 L100,0 L100,100 L0,100 Z" fill="none" stroke="#D4A017" stroke-opacity="0.3" stroke-width="2" />
    <path d="M25,25 C30,10 40,15 50,25 C60,15 70,10 75,25 C90,30 85,40 75,50 C85,60 90,70 75,75 C70,90 60,85 50,75 C40,85 30,90 25,75 C10,70 15,60 25,50 C15,40 10,30 25,25 Z" />
    <path d="M50,50 L30,30 L70,30 Z" stroke="#D4A017" stroke-opacity="0.5" stroke-width="1" fill="none"/>
    <path d="M40,60 L60,60 L60,85 L40,85 Z" stroke="#D4A017" stroke-opacity="0.5" stroke-width="1" fill="none"/>
  </g>
</svg>
